<?xml version="1.0" encoding="UTF-8"?>
<svg id="Calque_2" data-name="Calque 2" xmlns="http://www.w3.org/2000/svg" viewBox="0 0 2693.48 644.67">
  <defs>
    <style>
      .cls-1 {
        fill: #fff;
      }

      .cls-2 {
        fill: #60f;
      }
    </style>
  </defs>
  <g id="Calque_1-2" data-name="Calque 1">
    <path class="cls-1" d="M1952.45,227.23l182.91-.7v191.41h-540.63V0h540.63v145.94h-418.01l170.57,57.11-29.93,148.78,94.47-124.6Z"/>
    <path class="cls-2" d="M84.24,0L0,419.56l205.65-1.41-61.26,226.53,293.6-373.56h-197.82L393.02,0H84.24Z"/>
    <polygon class="cls-1" points="1523.53 0 1523.53 419.56 1222.77 419.56 1103.79 207.02 984.8 419.56 753.02 419.56 987.9 0 987.9 0 1219.68 0 1317.1 174.02 1317.1 0 1523.53 0"/>
    <polygon class="cls-1" points="916.27 .3 681.39 419.86 449.61 419.86 568.72 207.08 358.22 207.08 474 0 615.21 .08 609.08 135.1 684.64 .13 916.27 .3"/>
    <polygon class="cls-1" points="2693.48 288.99 2620.39 419.55 2388.61 419.55 2461.7 289 2388.1 157.55 2388.1 419.55 2206.14 419.55 2206.14 0 2531.69 0 2577.59 81.99 2693.48 288.99"/>
  </g>
</svg>